<?xml version="1.0" encoding="UTF-8"?>
<svg id="Capa_2" data-name="Capa 2" xmlns="http://www.w3.org/2000/svg" viewBox="0 0 308.33 2620.7">
  <defs>
    <style>
      .cls-1, .cls-2, .cls-3, .cls-4, .cls-5 {
        stroke: #1e1e1e;
      }

      .cls-1, .cls-2, .cls-4, .cls-5 {
        stroke-width: 2px;
      }

      .cls-1, .cls-4, .cls-5 {
        stroke-miterlimit: 10;
      }

      .cls-1, .cls-6 {
        fill: #1e1e1e;
      }

      .cls-2, .cls-3 {
        stroke-linecap: round;
        stroke-linejoin: round;
      }

      .cls-2, .cls-4, .cls-7 {
        fill: #0a0a08;
      }

      .cls-3 {
        fill: #fff;
        stroke-width: 4px;
      }

      .cls-8 {
        fill: #ea0a0a;
      }

      .cls-9, .cls-5 {
        fill: #fdf8e6;
      }
    </style>
  </defs>
  <g id="OBJECT">
    <g>
      <line class="cls-3" x1="154.13" y1="2430.87" x2="154.13" y2="2"/>
      <g>
        <g>
          <path class="cls-1" d="M271.3,2450.86c-6.95-3.97-13.74-6.16-19.14-5.01-2.74,.59-5.49,1.51-8.18,2.64,7.71,5.7,17.41,4.76,27.32,2.37Z"/>
          <path class="cls-4" d="M271.3,2450.86c-9.91,2.39-19.61,3.33-27.32-2.37-15.19,6.39-28.56,19.67-28.56,19.67l8.67,16.72s18.47-11.95,30.02-14.61c4.56-1.05,11.77,2.93,19.49,7.85,2.93-6.39,7.5-12.1,13.26-15.79-4.91-4.4-10.27-8.45-15.55-11.47Z"/>
          <path class="cls-1" d="M293.07,2468.33c-1.95-2.03-4.04-4.05-6.22-6-5.76,3.69-10.33,9.4-13.26,15.79,3.63,2.32,7.38,4.84,11.02,7.14,1.09-6.41,3.2-13,8.46-16.94Z"/>
          <path class="cls-4" d="M293.07,2468.33c-5.26,3.94-7.37,10.53-8.46,16.94,8.21,5.21,15.88,9.31,20.46,7.41,5.08-2.11-1.44-13.36-12-24.34Z"/>
          <path class="cls-1" d="M282.76,2503.13c-3.81-3.8-7.71-6.7-11.4-8.01-3.28-1.17-6.78-1.8-10.32-2.05,2.79,9.01,12.97,10.41,21.72,10.07Z"/>
          <path class="cls-4" d="M282.76,2503.13c-8.75,.34-18.92-1.05-21.72-10.07-15.89-1.14-32.43,5.38-32.43,5.38l3.1,18.65s19.95-4.37,30.73,1.02c4.1,2.05,10.56,7.31,17.33,12.89,.96-7.48,4.78-14.44,11.47-17.88-2.69-3.65-5.55-7.09-8.47-9.99Z"/>
          <path class="cls-4" d="M297.24,2522.11c-4.56,3.98-7.84,10.23-8.43,16.28,7.85,6.27,14.84,11.2,17.55,9.99,3.09-1.38-1.49-13.73-9.12-26.27Z"/>
          <path class="cls-1" d="M297.24,2522.11c-1.85-3.04-3.87-6.09-6.01-8.99-6.68,3.43-10.51,10.4-11.47,17.88,3.01,2.49,6.09,5.04,9.04,7.4,.59-6.05,3.87-12.31,8.43-16.28Z"/>
          <path class="cls-1" d="M270.23,2565.79c.53-7.17-.46-13.73-4.07-17.84-1.61-1.83-3.38-3.46-5.24-4.93-1.72,9.06,2.14,17.59,9.32,22.77Z"/>
          <path class="cls-1" d="M266.36,2584.06c.86-2.61,1.64-5.36,2.28-8.14-4.66-4.07-11.29-5.76-17.74-4.47,.46,4.36,.84,9.03,1.25,13.39,4.4-1.88,9.74-2.59,14.21-.78Z"/>
          <path class="cls-4" d="M252.15,2584.84c.86,9.23,1.82,17.06,3.83,17.61,2.07,.57,6.9-7.8,10.39-18.39-4.47-1.81-9.81-1.1-14.21,.78Z"/>
          <path class="cls-4" d="M260.91,2543.02c-12.32-9.72-28.73-12.08-28.73-12.08-1.66,5.39-3.73,11.6-3.73,11.6,0,0,14.09,4.98,18.95,12.34,1.72,2.6,2.72,9.14,3.51,16.57,6.45-1.29,13.08,.4,17.74,4.47,.78-3.39,1.34-6.82,1.58-10.13-7.18-5.18-11.03-13.71-9.32-22.77Z"/>
        </g>
        <g>
          <path class="cls-4" d="M7.01,2506.53c-6.07,14.54-8.34,27.71-3.03,28.09,5.25,.38,11.72-7.67,18.32-16.8-3.65-5.22-9.24-8.94-15.29-11.29Z"/>
          <path class="cls-1" d="M28.52,2504.79c-4.14-4.14-8.96-11.01-15.04-11.56-2.44,4.35-4.63,8.88-6.47,13.3,6.05,2.35,11.64,6.07,15.29,11.29,2.68-3.71,5.38-7.6,8.04-11.18-.54-.68-1.14-1.3-1.82-1.85Z"/>
          <path class="cls-1" d="M29.52,2475.79c7.46,1.15,15.25-1.66,21.1-6.72-3.89-.92-7.74-1.39-11.26-1.09-3.99,.34-8.12,2.81-12.13,6.61,.57,.71,1.25,1.2,2.29,1.2Z"/>
          <path class="cls-4" d="M50.62,2469.06c-5.85,5.06-13.64,7.87-21.1,6.72-1.04,0-1.72-.49-2.29-1.2-4.93,4.69-9.68,11.39-13.75,18.65,6.07,.55,10.9,7.42,15.04,11.56,.68,.54,1.28,1.17,1.82,1.85,5.48-7.39,10.74-13.46,15.15-13.88,11.79-1.12,32.87,8.89,32.87,8.89l2.95-18.61s-15.64-10.42-30.68-13.98Z"/>
          <path class="cls-4" d="M20.32,2561.82c-2.92,13.62-3.19,25.74,.04,26.06,3.08,.31,8.46-7.18,14.19-16.1-3.66-4.39-8.66-8.16-14.23-9.97Z"/>
          <path class="cls-1" d="M20.32,2561.82c5.57,1.8,10.57,5.58,14.23,9.97,2.26-3.51,4.56-7.23,6.8-10.8-5.03-4.91-11.37-8.48-18.29-9.75-1.08,3.51-2,7.1-2.75,10.58Z"/>
          <path class="cls-1" d="M46.52,2526.79c1.46-2.43,2.9-4.85,3.67-7.28-4.81,1.54-9.52,3.7-13.45,6.78-2.74,2.15-5.25,5.54-7.47,9.65,7.64,1.4,14.67-3.13,17.25-9.15Z"/>
          <path class="cls-4" d="M78.35,2515.94s-14.51-.78-28.16,3.57c-.77,2.43-2.22,4.85-3.67,7.28-2.58,6.02-9.6,10.55-17.25,9.15-2.42,4.47-4.51,9.79-6.2,15.3,6.91,1.27,13.25,4.84,18.29,9.75,4.2-6.67,8.17-12.75,11.11-15.7,8.52-8.52,28.83-10.67,28.83-10.67l-2.95-18.68Z"/>
          <path class="cls-1" d="M59.26,2559.38c-1.26,1.56-2.43,3.23-3.46,5-2.2,3.82-2.42,8.85-1.41,14.28,4.57-5.23,6.79-12,4.87-19.28Z"/>
          <path class="cls-4" d="M76.51,2615.8c1.95-.98,1.19-9.62,.13-19.44-4.39,.21-8.86,2.59-12.56,5.8,5.15,8.49,10.67,14.53,12.43,13.64Z"/>
          <path class="cls-1" d="M59.33,2593.3c1.45,3.11,3.08,6.11,4.75,8.86,3.7-3.22,8.18-5.6,12.56-5.8-.34-3.16-.71-6.44-1.03-9.64-5.98,.49-11.7,2.99-16.27,6.58Z"/>
          <path class="cls-4" d="M91.71,2551.66s-3.26-5.69-5.95-10.64c0,0-16.37,5.81-26.5,18.36,1.92,7.28-.3,14.05-4.87,19.28,.88,4.77,2.7,9.83,4.95,14.65,4.57-3.59,10.3-6.09,16.27-6.58-.84-8.35-1.34-16.06-.05-19.24,3.32-8.17,16.15-15.83,16.15-15.83Z"/>
        </g>
        <path class="cls-4" d="M77.37,2480.42c-12.14,25.89-12.53,90.43,55.04,100.26,92.64,13.47,125.81-57.66,98.95-110.09-26.87-52.42-118.53-65.79-153.99,9.83Z"/>
        <g>
          <path class="cls-7" d="M83.92,2479.11s-4.51-12.78-5.49-15.48,7.62,7.74,7.62,7.74c0,0-4.75-18.8-3.85-18.06,.9,.74,7.53,10.81,7.53,10.81,0,0-4.42-14.01-3.44-16.22,.98-2.21,11.06,10.07,11.06,10.07,0,0-4.91-16.71-3.44-17.45,1.47-.74,9.34,10.32,9.34,10.32,0,0-3.93-13.27-2.95-14.25s7.86,9.09,7.86,9.09c0,0-2.21-15.48-1.47-16.71,.74-1.23,6.88,13.51,6.88,13.51,0,0-.98-14.3,0-15.01,.98-.71,5.65,12.56,5.65,12.56,0,0-.74-9.2,1.23-12.59,1.97-3.39,2.95,10.37,2.95,10.37"/>
          <path class="cls-6" d="M83.92,2479.11s-4.94-13.18-4.94-13.18c0,0-.61-1.65-.61-1.65-.09-.33-.36-.69-.28-1.14,.47-1.14,3.12,2.2,3.64,2.65,1.6,1.73,3.15,3.49,4.68,5.28l-.81,.41c-1.48-5.81-3.1-11.56-4.12-17.48-.02-.37-.12-.56,.09-1.02,.21-.4,.8-.43,1.07-.15,2.88,3.41,5.19,7.22,7.74,10.87,0,0-1.38,.66-1.38,.66-.82-2.57-1.59-5.15-2.29-7.76-5.25-18.93,5.69-5.82,11.35,.8,0,0-1.59,.84-1.59,.84-.76-2.58-1.47-5.16-2.13-7.77-.64-2.62-1.3-5.2-1.62-8-.05-.56-.09-1.25,.05-1.83,.35-1.4,1.81-1.3,2.71-.55,3.44,2.9,5.92,6.63,8.58,10.19,0,0-1.75,.85-1.75,.85-.63-2.17-1.22-4.34-1.77-6.53-.53-2.21-1.09-4.35-1.32-6.76-.13-1.02,.17-2.43,1.51-2.22,.89,.23,1.5,.97,1.97,1.43,2.33,2.54,4.25,5.33,6.21,8.13,0,0-1.64,.64-1.64,.64-.37-2.67-.7-5.34-1-8.02-.27-2.86-.68-5.55-.53-8.48,0-.15,.11-.47,.17-.64,.1-.39,.69-.72,1.1-.59,.41,.07,.8,.51,.96,.74,2.63,4.2,4.31,8.88,6.27,13.4,0,0-1.38,.33-1.38,.33-.14-2.43-.24-4.85-.3-7.28-.02-2.51-.18-4.86,.23-7.4,.4-1.65,1.57-1,2.12,.13,1.99,3.8,3.31,7.87,4.72,11.9,0,0-.81,.17-.81,.17-.11-2.11-.11-4.2,.02-6.3,0-1.1,.87-8.54,2.77-6.77,.87,1.39,.96,3.03,1.23,4.59,.28,2.07,.45,4.15,.57,6.23-.2-2.07-.46-4.14-.82-6.19-.31-1.46-.49-3.12-1.29-4.36-.17-.18-.23-.17-.38-.05-1.26,1.86-1.27,4.36-1.44,6.59-.12,2.98,.16,6.28,.43,9.26-1.86-4.89-3.92-10.89-6.3-15.04,.13,.02,.3-.03,.38-.14,0,0-.04,.12-.06,.24-.51,6.06,.33,12.52,.69,18.6-2.56-5.64-4.8-11.9-8.14-17.06,.26,.21,.81,.04,.95-.24,.04,.07,.01,0,0,.11,0,0-.01,.22-.01,.22,.1,6.47,1.34,13.16,2.18,19.59,0,0-2.18-3.13-2.18-3.13-2.18-2.95-4.29-6.39-7.08-8.74,.22,.1,.68-.13,.76-.37,.02,2.29,.77,4.69,1.31,7.04,.91,3.61,2.35,8.34,3.41,11.95-2.51-3.46-5.52-7.71-8.21-10.97-1.14-1.3-2.19-2.75-3.62-3.65,.06,.02,.02,.01,.21,0,.13-.02,.4-.2,.44-.34-.03,.07-.02,.22-.03,.3,.58,6.87,3.05,13.86,4.84,20.55-2.52-3.08-5.35-6.54-8.07-9.41-1.34-1.4-3.13-3.27-4.6-4.06,.07,0,.19-.08,.23-.13,.07-.04,.08-.17,.07-.07-.21,2.5,.71,5.36,1.26,7.87,.97,4.07,2.48,8.86,3.68,12.9-3.24-4.94-6.78-10.71-10.2-15.24,.21,.19,.7,.09,.84-.18,.88,5.02,2.48,11.98,3.83,17.6,0,0,.46,1.99,.46,1.99-2.63-3.2-5.19-6.61-8.16-9.49-.1-.09-.21-.18-.31-.24-.04-.03-.11-.04-.05-.04,.04,.02,.19-.09,.19-.14,.01-.06,0-.03,0-.02,.48,1.51,4.68,14,5.27,15.79h0Z"/>
        </g>
        <g>
          <path class="cls-7" d="M175.25,2435.13s2.95-12.53,4.18-13.51c1.23-.98,1.57,9.35,1.57,9.35,0,0,4.32-11.07,5.8-11.32,1.47-.25,1.03,13.56,1.03,13.56,0,0,6.59-12.09,7.82-9.88,1.23,2.21-2.7,17.94-2.7,17.94,0,0,4.91-13.08,7.86-13.79,2.95-.71-1.97,14.77-1.97,14.77,0,0,9.83-11.55,11.06-11.31,1.23,.25-5.16,14.99-5.16,14.99,0,0,7.86-9.09,10.57-8.6,2.7,.49-5.65,13.51-5.65,13.51,0,0,9.58-8.35,10.57-7.86,.98,.49-4.67,11.55-4.67,11.55,0,0,9.34-8.6,10.81-7.62,1.47,.98-8.35,13.27-8.35,13.27"/>
          <path class="cls-6" d="M175.25,2435.13c1.89-8.22,5.1-24.08,6.16-4.18,0,0-.8-.14-.8-.14,1.44-3.65,2.78-7.38,4.89-10.72,.27-.37,.64-.87,1.16-1,1.22-.13,1.32,1.62,1.48,2.38,.49,3.91,.41,7.83,.38,11.76,0,0-1.32-.36-1.32-.36,1.27-2.33,2.58-4.61,4.07-6.83,.89-1.22,1.74-2.68,3.18-3.59,.26-.14,.65-.26,.98-.19,.7,.08,1.09,.8,1.19,1.43,.34,3.45-.56,6.76-1.1,10.07-.51,2.59-1.08,5.16-1.71,7.73l-1.71-.53c.96-2.51,1.99-4.96,3.16-7.38,.91-1.83,1.84-3.67,3.13-5.31,.5-.6,1.21-1.46,2.26-1.71,3.54-.34,1.52,6.35,1.23,8.25-.6,2.62-1.3,5.19-2.09,7.75,0,0-1.71-.95-1.71-.95,3.52-3.89,6.75-8.15,10.94-11.36,1.48-.82,2.28,.47,1.89,1.87-1.26,4.92-3.42,9.51-5.35,14.18,0,0-1.51-.95-1.51-.95,1.64-1.85,3.33-3.61,5.16-5.29,1.44-1.24,6.02-5.63,7.4-2.5,.29,1.52-.4,2.75-.89,4.07-1.52,3.38-3.45,6.51-5.44,9.63,0,0-1.12-.97-1.12-.97,1.65-1.4,3.32-2.78,5.02-4.12,1.83-1.29,3.69-3.2,5.88-3.82,1.76,.13,.41,2.67,.12,3.61-1.24,3.02-2.7,5.91-4.18,8.81,0,0-.78-.59-.78-.59,2.8-2.42,5.59-4.85,8.75-6.8,8.45-4.42-4.81,11.44-5.96,12.82,2.84-3.92,6-7.79,8.05-12.18,.09-.29,.22-.64,.14-.83-.08-.06-.19-.02-.34,0-1.65,.56-3.08,1.85-4.47,2.91-2.56,2.07-5.1,4.45-7.5,6.71,1.33-2.7,2.77-5.56,3.97-8.31,.69-1.69,1.6-3.42,1.87-5.2,0-.03,0,.02,0,.03,.01,.03,0,0,.07,.11,.15,.15,.27,.17,.33,.16-.02,.02,.01,0-.04,.02-1.79,.87-3.44,2.39-5.04,3.63-2.7,2.22-6.04,5.17-8.68,7.52,2.01-3.29,4.52-7.18,6.26-10.58,.89-1.87,2.27-4.12,2.35-6.14,0,0,0,.03,.01,.03,.01,.02,.04,.08,.09,.08-1.45,.33-3.33,1.99-4.66,3.2-2.88,2.64-6.12,6.48-8.72,9.45,0,0,2.22-5.22,2.22-5.22,1.85-4.53,4.22-9.75,5.21-14.19,.08,.34,.6,.59,.88,.49-1.9,1.36-3.51,3.32-5.16,5.05-2.71,2.97-5.74,6.55-8.4,9.61,1.21-3.85,2.65-8.27,3.54-12.17,.38-1.95,1.05-4.2,.7-6.1,0,0,.11,.13,.25,.13,.05,0,.06,.02,.08,0-.33,.1-.78,.55-1.17,1.04-2.68,3.63-4.37,7.97-6.07,12.14,0,0-1.71-.53-1.71-.53,1.22-5.57,2.99-11.36,2.91-17.06,0,0-.03-.16-.03-.16-.01-.04-.02-.05-.03-.09,.05,.07,.22,.16,.33,.13-2.87,2.39-4.8,6.4-6.81,9.66,0,0-1.42,2.51-1.42,2.51,.16-4.77,.44-9.67-.04-14.42-.07-.55-.16-1.12-.36-1.49,.02,.04,.03,.02,.13,.07,.27,0,.14-.02,.1,.03-2.49,3.17-3.81,7.22-5.48,10.87,0,0-.75,1.82-.75,1.82l-.05-1.96c-.18-2.99-.02-6.43-.99-9.16-.38,.44-.7,1.21-.92,1.81-1.37,3.75-2.4,7.64-3.43,11.5h0Z"/>
        </g>
        <path class="cls-8" d="M147.79,2537.6s13.42,6.25,22.84-2.96c9.41-9.21,4.66,13.36-8.75,14.87-12.87,1.45-21.17-13.79-14.08-11.9Z"/>
        <g>
          <path class="cls-8" d="M86.12,2497.91c0,1.87-1.52,3.39-3.39,3.39s-3.39-1.52-3.39-3.39,1.52-3.39,3.39-3.39,3.39,1.52,3.39,3.39Z"/>
          <circle class="cls-8" cx="91.06" cy="2492.45" r="2.08"/>
          <circle class="cls-8" cx="84.75" cy="2514.69" r="3.45"/>
        </g>
        <g>
          <circle class="cls-8" cx="217.01" cy="2480.24" r="3.39"/>
          <path class="cls-8" d="M230.23,2483.53c0,1.03-.83,1.86-1.86,1.86s-1.86-.83-1.86-1.86,.83-1.86,1.86-1.86,1.86,.83,1.86,1.86Z"/>
          <path class="cls-8" d="M228.44,2492.92c0,1.41-1.14,2.55-2.55,2.55s-2.55-1.14-2.55-2.55,1.14-2.55,2.55-2.55,2.55,1.14,2.55,2.55Z"/>
        </g>
        <g>
          <g>
            <path class="cls-5" d="M147,2518.37c5.29-12.28-16.79-29.29-36.86-16.78-34.76,21.67,21.62,52.16,36.86,16.78Z"/>
            <path class="cls-1" d="M131.42,2514.98c.93,8.29-1.9,15.42-6.33,15.92-4.43,.5-8.78-5.82-9.71-14.11-.93-8.29,1.9-15.42,6.33-15.92,4.43-.5,8.78,5.82,9.71,14.11Z"/>
          </g>
          <path class="cls-6" d="M110.14,2501.59s-3.38-13.38,0-14.23c3.38-.86,5.22,11.64,5.22,11.64l-5.22,2.6Z"/>
          <path class="cls-6" d="M119.45,2497.79s-1.41-12.57,0-13.7c1.41-1.12,3.92,1.74,3.95,13.17l-3.95,.53Z"/>
          <path class="cls-6" d="M127.95,2497.38s-.02-10.86,3.19-10.06c3.21,.79,1.11,10.92,1.11,10.92l-4.31-.85Z"/>
        </g>
        <g>
          <g>
            <path class="cls-5" d="M212.82,2510.75c5.29-12.28-16.79-29.29-36.86-16.78-34.76,21.67,21.62,52.16,36.86,16.78Z"/>
            <path class="cls-1" d="M197.25,2507.36c.93,8.29-1.9,15.42-6.33,15.92s-8.78-5.82-9.71-14.11c-.93-8.29,1.9-15.42,6.33-15.91,4.43-.5,8.78,5.82,9.71,14.11Z"/>
          </g>
          <path class="cls-6" d="M175.97,2493.97s-3.38-13.38,0-14.23c3.38-.86,5.22,11.64,5.22,11.64l-5.22,2.6Z"/>
          <path class="cls-6" d="M185.28,2490.17s-1.41-12.57,0-13.7c1.41-1.12,3.92,1.74,3.95,13.17l-3.95,.53Z"/>
          <path class="cls-6" d="M193.78,2489.76s-.02-10.86,3.19-10.06c3.21,.79,1.11,10.92,1.11,10.92l-4.31-.85Z"/>
        </g>
        <g>
          <g>
            <path class="cls-5" d="M175.94,2473.39c5.29-12.28-16.79-29.29-36.86-16.78-34.76,21.67,21.62,52.16,36.86,16.78Z"/>
            <ellipse class="cls-1" cx="152.34" cy="2470.91" rx="8.07" ry="15.11" transform="translate(-275.28 32.52) rotate(-6.42)"/>
          </g>
          <path class="cls-6" d="M139.08,2456.61s-3.38-13.38,0-14.23c3.38-.86,5.22,11.64,5.22,11.64l-5.22,2.6Z"/>
          <path class="cls-6" d="M148.39,2452.81s-1.41-12.57,0-13.7c1.41-1.12,3.92,1.74,3.95,13.16l-3.95,.53Z"/>
          <path class="cls-6" d="M156.89,2452.4s-.02-10.86,3.19-10.06c3.21,.79,1.11,10.92,1.11,10.92l-4.31-.85Z"/>
        </g>
        <path class="cls-9" d="M149.58,2538.28s.47,4.68,2.08,4.04c1.61-.64,2.02-3.02,2.02-3.02l-4.1-1.02Z"/>
        <path class="cls-9" d="M167.77,2536.91s1.36,2.69,2.75,2.02,.11-4.29,.11-4.29l-2.86,2.28Z"/>
      </g>
      <path class="cls-2" d="M100.88,2561.07s3.43,48.86,17.95,58.16c9.38,6.01,2.29-47.45,2.29-47.45"/>
      <path class="cls-2" d="M191.19,2565.6s6.83,16.74,2.49,39.15c-4.04,20.84,11.35,16.74,18.25-12.32,5.24-22.04-3.39-38.26-3.39-38.26"/>
    </g>
  </g>
</svg>